<svg width="100" height="100" viewBox="0 0 100 100" fill="none" xmlns="http://www.w3.org/2000/svg">
<rect x="6" y="6" width="88" height="88" rx="8" fill="white" fill-opacity="0.8"/>
<path fill-rule="evenodd" clip-rule="evenodd" d="M50 20.84C43.0846 20.8523 36.3987 23.3219 31.1357 27.8078C25.8728 32.2938 22.3755 38.5042 21.2681 45.3304C20.1606 52.1565 21.5153 59.1541 25.0901 65.0738C28.6649 70.9935 34.2272 75.4502 40.784 77.648C42.224 77.936 42.8 77 42.8 76.208C42.8 75.416 42.728 73.688 42.728 71.312C34.664 73.04 32.936 67.352 32.936 67.352C31.568 64.04 29.696 63.104 29.696 63.104C27.032 61.304 29.912 61.376 29.912 61.376C32.792 61.52 34.376 64.328 34.376 64.328C36.968 68.792 41.144 67.496 42.8 66.776C42.9671 65.3058 43.6269 63.9355 44.672 62.888C38.192 62.168 31.424 59.648 31.424 48.488C31.408 45.5978 32.4592 42.8033 34.376 40.64C34.088 39.92 33.08 36.968 34.664 32.936C34.664 32.936 37.112 32.144 42.728 35.96C47.4827 34.6148 52.5173 34.6148 57.272 35.96C62.888 32.144 65.336 32.936 65.336 32.936C66.92 36.968 65.912 39.92 65.624 40.64C67.5408 42.8033 68.592 45.5978 68.576 48.488C68.576 59.648 61.808 62.168 55.256 62.888C56.336 63.752 57.272 65.552 57.272 68.216C57.272 72.176 57.2 75.272 57.2 76.208C57.2 77.144 57.776 77.936 59.216 77.648C65.7728 75.4502 71.3351 70.9935 74.9099 65.0738C78.4847 59.1541 79.8393 52.1565 78.7319 45.3304C77.6245 38.5042 74.1272 32.2938 68.8642 27.8078C63.6013 23.3219 56.9154 20.8523 50 20.84Z" fill="#221E1B"/>
</svg>
