<svg width="100" height="100" viewBox="0 0 100 100" fill="none" xmlns="http://www.w3.org/2000/svg">
<rect x="6" y="6" width="88" height="88" rx="8" fill="white" fill-opacity="0.8"/>
<g clip-path="url(#clip0_3_463)">
<path fill-rule="evenodd" clip-rule="evenodd" d="M86 39.776H85.928C85.8539 38.6783 85.6607 37.5919 85.352 36.536C84.4576 34.381 83.0186 32.4953 81.176 31.064C79.592 29.624 77.144 28.544 76.352 29.48C75.7856 29.9422 75.256 30.4477 74.768 30.992H74.696C74.048 31.856 74.408 32.144 74.768 32.432C75.128 32.72 78.152 34.16 79.16 37.04C79.664 38.264 80.672 41.072 78.872 42.8C78.4635 43.1763 78.0027 43.4916 77.504 43.736L76.568 43.88C74.624 44.024 71.6 42.44 65.408 36.824C65.2105 36.5902 64.9937 36.3735 64.76 36.176C58.712 30.416 51.296 29.552 45.32 30.056C42.2091 30.3615 39.1421 31.0135 36.176 32C31.568 33.512 29.48 35.024 31.28 38.552C32.4662 41.0602 33.813 43.4892 35.312 45.824C36.248 47.408 37.472 48.056 38.768 48.056C42.44 48.128 46.76 43.592 47.264 43.016C44.024 47.84 41.072 49.568 38.624 49.568C37.6602 49.5352 36.72 49.2609 35.8897 48.7703C35.0595 48.2796 34.3657 47.5884 33.872 46.76C32.6605 44.7179 31.5783 42.6017 30.632 40.424C16.016 45.752 18.824 67.856 19.256 70.592V70.88H27.032C28.976 61.736 36.032 62.096 37.256 70.88H43.16C48.344 53.024 59.576 70.88 59.576 70.88H66.2C66.2 61.376 65.192 57.776 70.088 57.128C78.368 55.976 82.256 52.088 84.776 46.256L84.992 45.68L85.208 45.176C85.2224 45.0229 85.2717 44.8751 85.352 44.744C85.8401 43.135 86.0591 41.4564 86 39.776ZM60.44 47.768C56.408 46.4 57.848 42.224 57.848 42.224L60.656 43.16C60.3565 43.3819 60.1195 43.6776 59.9681 44.0182C59.8167 44.3589 59.756 44.7329 59.792 45.104C59.8273 45.3793 59.9171 45.6448 60.0562 45.8849C60.1954 46.1251 60.3809 46.3351 60.6022 46.5027C60.8234 46.6703 61.0758 46.7921 61.3447 46.861C61.6135 46.9299 61.8934 46.9445 62.168 46.904C62.4428 46.877 62.7094 46.7959 62.9526 46.6652C63.1958 46.5345 63.4107 46.3569 63.5848 46.1426C63.7589 45.9283 63.8887 45.6817 63.9669 45.4169C64.045 45.1521 64.0699 44.8744 64.04 44.6V44.312L66.2 45.032C65.984 46.328 63.536 48.776 60.44 47.768Z" fill="#02303A"/>
</g>
<defs>
<clipPath id="clip0_3_463">
<rect width="72" height="72" fill="white" transform="translate(14 14)"/>
</clipPath>
</defs>
</svg>
