<svg width="100" height="100" viewBox="0 0 100 100" fill="none" xmlns="http://www.w3.org/2000/svg">
<rect x="6" y="6" width="88" height="88" rx="8" fill="white" fill-opacity="0.8"/>
<path d="M41.504 64.184C41.504 64.184 38.984 65.624 43.232 66.128C47.48 66.632 51.008 66.632 56.696 65.552C57.8237 66.2219 59.0035 66.7998 60.224 67.28C47.552 72.752 31.496 66.992 41.504 64.184Z" fill="#1498E2"/>
<path d="M39.92 57.056C39.92 57.056 37.112 59.144 41.432 59.576C47.1957 60.2817 53.037 60.014 58.712 58.784C59.4973 59.4683 60.3998 60.0049 61.376 60.368C46.04 64.904 28.904 60.728 39.92 57.056Z" fill="#1498E2"/>
<path d="M53.024 45.032C56.12 48.632 52.16 51.872 52.16 51.872C52.16 51.872 60.152 47.768 56.48 42.656C52.808 37.544 50.504 35.456 64.616 27.248C64.616 27.248 42.44 32.792 53.024 45.032Z" fill="#E76F00"/>
<path d="M69.8 69.44C69.8 69.44 71.672 70.952 67.784 72.104C60.44 74.336 37.256 75.056 30.848 72.248C28.544 71.24 32.864 69.8 34.232 69.512C34.9635 69.3433 35.7138 69.2707 36.464 69.296C33.872 67.424 19.832 72.824 29.336 74.408C55.256 78.584 76.568 72.464 69.8 69.44Z" fill="#1498E2"/>
<path d="M42.656 49.712C42.656 49.712 30.848 52.52 38.48 53.528C41.72 53.96 48.128 53.888 54.104 53.384C60.08 52.88 63.896 52.088 63.896 52.088C62.8656 52.5245 61.8775 53.0548 60.944 53.672C48.92 56.84 25.808 55.4 32.432 52.16C35.6003 50.5519 39.103 49.7133 42.656 49.712Z" fill="#1498E2"/>
<path d="M63.824 61.52C75.992 55.256 70.376 49.136 66.488 50C65.9932 50.0503 65.5083 50.1716 65.048 50.36C65.3113 49.9846 65.6908 49.7063 66.128 49.568C73.904 46.832 79.88 57.632 63.608 61.88C63.7045 61.7765 63.7781 61.6539 63.824 61.52Z" fill="#1498E2"/>
<path d="M56.48 14C56.48 14 63.248 20.768 50.072 31.136C39.56 39.416 47.696 44.168 50.072 49.64C43.952 44.024 39.416 39.2 42.44 34.592C46.904 27.968 59.216 24.728 56.48 14Z" fill="#E76F00"/>
<path d="M43.88 78.728C55.544 79.448 73.544 78.296 73.904 72.752C73.904 72.752 73.112 74.84 64.256 76.496C54.4742 78.159 44.4968 78.3289 34.664 77C34.664 77 36.176 78.224 43.88 78.728Z" fill="#1498E2"/>
</svg>
