<svg width="100" height="100" viewBox="0 0 100 100" fill="none" xmlns="http://www.w3.org/2000/svg">
<rect x="6" y="6" width="88" height="88" rx="8" fill="white" fill-opacity="0.8"/>
<path fill-rule="evenodd" clip-rule="evenodd" d="M72.536 48.848C72.536 61.592 62.456 71.888 50 71.888C37.544 71.888 27.464 61.592 27.464 48.848C27.464 36.104 37.544 25.808 50 25.808C62.456 25.808 72.536 36.104 72.536 48.848Z" fill="#D33833"/>
<path d="M28.4 54.536C28.4 54.536 26.744 30.488 48.92 29.84L47.336 27.248L35.312 31.28L31.928 35.24L28.904 41L27.176 47.696L27.68 52.16" fill="#EF3D3A"/>
<path d="M34.592 33.152C30.4638 37.3597 28.1613 43.0254 28.184 48.92C28.1613 54.8145 30.4638 60.4803 34.592 64.688C36.5798 66.7704 38.9714 68.4256 41.6207 69.5521C44.27 70.6787 47.1212 71.253 50 71.24C52.8788 71.253 55.7301 70.6787 58.3794 69.5521C61.0286 68.4256 63.4203 66.7704 65.408 64.688C69.5362 60.4803 71.8387 54.8145 71.816 48.92C71.8387 43.0254 69.5362 37.3597 65.408 33.152C63.4203 31.0695 61.0286 29.4144 58.3794 28.2878C55.7301 27.1613 52.8788 26.5869 50 26.6C47.1212 26.5869 44.27 27.1613 41.6207 28.2878C38.9714 29.4144 36.5798 31.0695 34.592 33.152ZM33.584 65.696C29.2107 61.2052 26.7575 55.1883 26.744 48.92C26.7575 42.6516 29.2107 36.6347 33.584 32.144C35.7086 29.9339 38.258 28.1761 41.079 26.9759C43.8999 25.7758 46.9344 25.1581 50 25.16C53.0657 25.1581 56.1001 25.7758 58.9211 26.9759C61.7421 28.1761 64.2914 29.9339 66.416 32.144C70.7893 36.6347 73.2425 42.6516 73.256 48.92C73.2425 55.1883 70.7893 61.2052 66.416 65.696C64.2914 67.906 61.7421 69.6639 58.9211 70.864C56.1001 72.0642 53.0657 72.6819 50 72.68C46.9344 72.6819 43.8999 72.0642 41.079 70.864C38.258 69.6639 35.7086 67.906 33.584 65.696Z" fill="#231F20"/>
<path fill-rule="evenodd" clip-rule="evenodd" d="M59.504 48.992L56.048 49.496L51.44 50H45.464L43.232 49.28L41.288 47.192L39.776 42.8L39.416 41.864L37.328 41.144L36.176 39.2L35.312 36.32L36.248 33.872L38.48 33.08L40.28 33.944L41.144 35.816L42.152 35.672L42.512 35.24L42.152 33.296V30.776L42.656 27.32V25.376L44.168 22.856L46.976 20.912L51.728 18.824L57.056 19.616L61.664 23L63.824 26.384L65.12 28.904L65.48 35.096L64.472 40.352L62.6 45.104L60.8 47.624" fill="#F0D6B7"/>
<path fill-rule="evenodd" clip-rule="evenodd" d="M56.552 63.824L44.312 64.328V66.416L45.32 73.616L44.816 74.192L36.248 71.24L35.6 70.232L34.736 60.512L32.792 54.68L32.36 53.312L39.2 48.632L41.36 47.768L43.232 50.072L44.888 51.512L46.76 52.16L47.624 52.376L48.704 56.84L49.424 57.776L51.44 57.128L50.072 59.792L57.488 63.32L56.552 63.824Z" fill="#335061"/>
<path fill-rule="evenodd" clip-rule="evenodd" d="M36.248 33.872L38.48 33.08L40.28 33.944L41.144 35.816L42.152 35.672L42.44 34.664L41.864 32.648L42.44 27.968L42.008 25.376L43.52 23.576L46.904 20.912L45.896 19.616L41.216 21.92L39.2 23.504L38.12 25.88L36.392 28.184L35.888 30.92L36.248 33.872Z" fill="#6D6B6D"/>
<path fill-rule="evenodd" clip-rule="evenodd" d="M39.776 25.808C39.776 25.808 41 22.64 46.184 21.056C51.368 19.472 46.472 19.976 46.472 19.976L40.856 22.136L38.696 24.224L37.76 25.952L39.776 25.808Z" fill="#DCD9D8"/>
<path fill-rule="evenodd" clip-rule="evenodd" d="M37.184 33.296C37.184 33.296 35.384 27.248 42.224 26.384L42.008 25.376L37.256 26.456L35.888 30.92L36.248 33.872L37.184 33.296Z" fill="#DCD9D8"/>
<path fill-rule="evenodd" clip-rule="evenodd" d="M39.92 41.216L41.072 40.136C41.2254 40.1668 41.3645 40.2467 41.4685 40.3636C41.5724 40.4805 41.6354 40.6281 41.648 40.784C41.72 41.432 42.008 46.832 45.68 49.712C45.968 50 42.944 49.28 42.944 49.28L40.208 45.032" fill="#F7E4CD"/>
<path fill-rule="evenodd" clip-rule="evenodd" d="M55.688 39.632C55.688 39.632 55.904 37.04 56.624 37.184C56.8138 37.2566 56.9772 37.3847 57.0928 37.5518C57.2084 37.7188 57.2709 37.9169 57.272 38.12C57.272 38.12 55.616 39.2 55.688 39.632Z" fill="#F7E4CD"/>
<path d="M62.816 30.056C62.4421 30.1542 62.1027 30.3542 61.8357 30.6339C61.5688 30.9136 61.3847 31.2619 61.304 31.64C61.16 32.864 62.816 31.856 63.104 31.784" fill="#F7E4CD"/>
<path d="M52.448 30.2C52.448 30.2 50.576 30.416 50.576 31.64C50.576 32.864 52.736 32.72 53.312 32.216" fill="#F7E4CD"/>
<path fill-rule="evenodd" clip-rule="evenodd" d="M40.784 35.744C40.784 35.744 37.544 33.8 37.184 35.672C36.824 37.544 36.032 38.912 37.688 40.928L36.608 40.568L35.528 37.904L35.168 35.312L37.184 33.296L39.416 33.44L40.712 34.448V35.744" fill="#F7E4CD"/>
<path fill-rule="evenodd" clip-rule="evenodd" d="M42.296 30.344C42.296 30.344 43.808 22.784 51.152 21.344C57.2 20.12 60.44 21.56 61.592 23C61.592 23 56.192 16.52 51.08 18.536C45.968 20.552 42.152 24.08 42.224 26.384C42.3302 27.7013 42.3543 29.0238 42.296 30.344Z" fill="#F7E4CD"/>
<path fill-rule="evenodd" clip-rule="evenodd" d="M62.24 23.792C62.24 23.792 59.72 23.72 59.648 25.952C59.6546 26.1985 59.7033 26.442 59.792 26.672C59.792 26.672 61.808 24.44 63.032 25.592" fill="#F7E4CD"/>
<path fill-rule="evenodd" clip-rule="evenodd" d="M51.296 26.888C51.296 26.888 50.936 23.432 47.984 25.448C45.032 27.464 46.256 28.544 46.616 28.904C46.976 29.264 46.832 29.912 47.12 29.48C47.408 29.048 47.264 27.464 48.272 27.032C49.28 26.6 50.72 26.096 51.296 26.888Z" fill="#F7E4CD"/>
<path fill-rule="evenodd" clip-rule="evenodd" d="M43.232 50.072L35.168 53.672C35.168 53.672 38.552 66.992 36.824 71.096L35.6 70.664V65.624L33.296 55.976L32.36 53.312L40.784 47.696L43.232 50.072Z" fill="#49728B"/>
<path fill-rule="evenodd" clip-rule="evenodd" d="M44.096 57.416L45.248 58.856V63.968H43.88C43.88 63.968 43.664 60.368 43.664 59.936C43.664 59.504 43.88 57.992 43.88 57.992" fill="#49728B"/>
<path fill-rule="evenodd" clip-rule="evenodd" d="M44.096 64.76L40.28 64.904L41.36 65.696L44.096 66.128" fill="#49728B"/>
<path fill-rule="evenodd" clip-rule="evenodd" d="M57.344 63.896H60.512L61.304 71.744L57.992 72.176L57.344 63.968" fill="#335061"/>
<path fill-rule="evenodd" clip-rule="evenodd" d="M58.208 63.896L63.032 63.608C63.032 63.608 64.976 58.64 64.976 58.424C64.976 58.208 66.704 51.224 66.704 51.224L62.816 47.192L62.024 46.472L60.008 48.56V56.48L58.208 63.896Z" fill="#335061"/>
<path fill-rule="evenodd" clip-rule="evenodd" d="M60.368 63.32L57.344 63.896L57.776 66.272C58.856 66.776 60.8 65.408 60.8 65.408" fill="#49728B"/>
<path fill-rule="evenodd" clip-rule="evenodd" d="M60.44 48.272L66.416 52.736L66.632 50.648L62.024 46.472L60.44 48.272Z" fill="#49728B"/>
<path fill-rule="evenodd" clip-rule="evenodd" d="M47.12 80.816L45.32 73.616L44.456 68.288L44.312 64.328L52.304 63.896H57.344L56.912 72.896L57.632 79.88V81.104L51.152 81.68L47.12 80.816Z" fill="white" fill-opacity="0.8"/>
<path fill-rule="evenodd" clip-rule="evenodd" d="M56.192 63.824C56.192 63.824 55.76 72.752 57.056 79.088C55.1197 80.2218 52.9554 80.9105 50.72 81.104L57.92 80.888L58.784 80.384L57.776 66.272L57.488 63.32" fill="#DCD9D8"/>
<path fill-rule="evenodd" clip-rule="evenodd" d="M61.448 71.024L64.76 70.088L71.096 69.728L72.032 66.776L70.376 61.736L68.36 61.52L65.624 62.384L63.032 63.608L61.592 63.392L60.512 63.824" fill="white" fill-opacity="0.8"/>
<path fill-rule="evenodd" clip-rule="evenodd" d="M61.376 69.296C61.376 69.296 63.608 68.288 63.968 68.36L63.032 63.608L64.112 63.176C64.112 63.176 64.904 67.64 64.904 68.216L70.088 68.432C70.7341 67.1921 71.0091 65.7922 70.88 64.4L71.816 67.136V68.72L70.448 70.736L68.936 71.096H66.416L65.552 69.944L62.6 70.376L61.592 70.736" fill="#DCD9D8"/>
<path d="M57.992 63.176L56.12 58.424L54.104 55.544C54.104 55.544 54.536 54.392 55.184 54.392H57.128L59 55.04L58.856 58.208L57.992 63.176Z" fill="white" fill-opacity="0.8"/>
<path fill-rule="evenodd" clip-rule="evenodd" d="M58.352 61.592C58.352 61.592 55.976 56.912 55.976 56.264C55.976 55.616 56.408 55.256 56.984 55.472L58.856 56.408V54.824L55.976 54.176L53.96 54.464L57.344 62.384H57.992" fill="#DCD9D8"/>
<path d="M47.84 50.216L45.464 50L43.232 49.28V50.072L44.384 51.296L47.768 52.808" fill="white" fill-opacity="0.8"/>
<path fill-rule="evenodd" clip-rule="evenodd" d="M44.024 50.504C44.024 50.504 46.688 51.656 47.552 51.368V52.376L45.176 51.872L43.736 50.864L43.952 50.504" fill="#DCD9D8"/>
<path fill-rule="evenodd" clip-rule="evenodd" d="M61.448 54.68C60.1089 54.6562 58.7783 54.4627 57.488 54.104C57.56 53.672 57.416 53.168 57.56 52.88C57.9448 52.6349 58.4036 52.533 58.856 52.592C58.409 52.3756 57.9068 52.3003 57.416 52.376C57.384 52.093 57.2853 51.8215 57.128 51.584C57.992 51.296 59.936 49.424 61.016 50C62.096 50.576 61.736 52.088 61.736 52.88C61.8486 53.4953 61.7469 54.1306 61.448 54.68Z" fill="#D33833"/>
<path d="M61.448 54.68C60.1089 54.6562 58.7783 54.4627 57.488 54.104C57.56 53.672 57.416 53.168 57.56 52.88C57.9448 52.6349 58.4036 52.533 58.856 52.592C58.409 52.3756 57.9068 52.3003 57.416 52.376C57.384 52.093 57.2853 51.8215 57.128 51.584C57.992 51.296 59.936 49.424 61.016 50C62.096 50.576 61.736 52.088 61.736 52.88C61.8486 53.4953 61.7469 54.1306 61.448 54.68Z" stroke="#D33833" stroke-width="0.71" stroke-miterlimit="5"/>
<path fill-rule="evenodd" clip-rule="evenodd" d="M54.464 52.304V52.592C53.96 52.88 53.24 52.88 52.736 53.168C53.3839 53.1744 54.0227 53.3218 54.608 53.6C54.5485 53.8839 54.5244 54.1741 54.536 54.464C53.672 55.04 52.952 55.904 51.944 56.408C50.936 56.912 49.856 57.344 49.352 57.2C48.848 57.056 49.064 56.768 48.992 56.48C48.5563 55.5706 48.2648 54.599 48.128 53.6C48.056 52.232 47.912 50 49.352 50.288C50.5399 50.5433 51.6814 50.9805 52.736 51.584C53.2433 51.9637 53.8371 52.2112 54.464 52.304Z" fill="#D33833"/>
<path d="M54.464 52.304V52.592C53.96 52.88 53.24 52.88 52.736 53.168C53.3839 53.1744 54.0227 53.3218 54.608 53.6C54.5485 53.8839 54.5244 54.1741 54.536 54.464C53.672 55.04 52.952 55.904 51.944 56.408C50.936 56.912 49.856 57.344 49.352 57.2C48.848 57.056 49.064 56.768 48.992 56.48C48.5563 55.5706 48.2648 54.599 48.128 53.6C48.056 52.232 47.912 50 49.352 50.288C50.5399 50.5433 51.6814 50.9805 52.736 51.584C53.2433 51.9637 53.8371 52.2112 54.464 52.304Z" stroke="#D33833" stroke-width="0.71" stroke-miterlimit="5"/>
<path fill-rule="evenodd" clip-rule="evenodd" d="M55.256 53.888C55.1535 53.3646 55.0814 52.8358 55.04 52.304C56.984 51.008 57.344 54.536 55.256 53.888Z" fill="#D33833"/>
<path d="M55.256 53.888C55.1535 53.3646 55.0814 52.8358 55.04 52.304C56.984 51.008 57.344 54.536 55.256 53.888Z" stroke="#D33833" stroke-width="0.71" stroke-miterlimit="5"/>
<path fill-rule="evenodd" clip-rule="evenodd" d="M58.064 54.464C58.064 54.464 57.488 53.6 57.92 53.312C58.352 53.024 58.784 53.312 59 52.88C59.216 52.448 59 52.232 59.144 51.728C59.288 51.224 59.648 51.08 60.08 51.008C60.512 50.936 61.664 50.792 61.88 51.224L61.376 49.64L60.296 49.28L57.056 51.224L56.912 52.16V54.032" fill="#EF3D3A"/>
<path fill-rule="evenodd" clip-rule="evenodd" d="M49.064 57.272C48.992 55.976 48.848 54.608 48.704 53.24C48.56 51.872 49.208 51.656 50.936 51.656C51.224 51.656 52.592 51.944 52.664 52.16C52.736 52.376 51.872 52.88 53.24 53.6C54.608 54.32 56.336 53.24 55.832 51.872C55.616 51.584 54.536 51.8 54.176 51.584L52.16 50.576C51.296 50.072 49.352 49.496 48.416 50.072C46.112 51.656 48.56 55.544 49.352 57.2" fill="#EF3D3A"/>
<path fill-rule="evenodd" clip-rule="evenodd" d="M51.296 26.888C48.992 26.312 47.84 27.896 47.12 29.48C46.472 29.264 46.76 28.4 46.904 27.968C47.048 27.536 48.992 25.304 50.36 25.52C51.728 25.736 51.8 26.168 51.296 26.888Z" fill="#231F20"/>
<path fill-rule="evenodd" clip-rule="evenodd" d="M62.744 29.552H62.816C63.392 30.632 63.824 31.784 64.472 32.792C65.12 33.8 61.088 34.736 61.16 32.864C61.808 32.576 62.888 32.792 63.464 32.432C62.9733 31.5527 62.7248 30.5588 62.744 29.552Z" fill="#231F20"/>
<path fill-rule="evenodd" clip-rule="evenodd" d="M52.52 29.552C53.024 30.488 53.168 31.496 53.888 32.144C54.608 32.792 54.824 32.864 54.536 33.728C54.3231 34.0749 53.9899 34.3312 53.6 34.448C52.52 34.808 49.928 34.52 50.792 33.152C51.728 33.224 52.952 33.728 53.672 33.08C53.096 32.216 52.16 30.56 52.52 29.552Z" fill="#231F20"/>
<path fill-rule="evenodd" clip-rule="evenodd" d="M62.312 38.912C60.656 39.992 58.784 41.144 55.976 40.928C55.6636 40.6072 55.4714 40.1885 55.4321 39.7424C55.3927 39.2964 55.5085 38.8505 55.76 38.48C56.048 38.984 55.904 39.92 56.696 40.064C57.488 40.208 60.08 39.128 61.232 38.696C62.384 38.264 61.16 37.112 60.512 36.32C59.864 35.528 57.488 32.864 57.56 30.56C58.064 30.2 58.136 31.136 58.208 31.352C58.856 32.864 60.584 34.88 61.808 36.248C63.032 37.616 62.6 36.896 62.672 37.112C62.744 37.328 62.24 38.48 62.312 38.912Z" fill="#231F20"/>
<path fill-rule="evenodd" clip-rule="evenodd" d="M40.208 37.76C39.632 37.472 39.56 36.176 38.912 36.104C38.264 36.032 38.192 37.832 38.192 38.912C37.616 38.336 37.472 36.608 37.904 35.744C38.336 34.88 37.184 36.032 36.896 36.248C37.256 33.584 40.784 35.024 40.208 37.76Z" fill="#231F20"/>
<path fill-rule="evenodd" clip-rule="evenodd" d="M63.392 39.992C62.6 41.504 61.52 43.16 59.216 43.16C59.144 42.6827 59.144 42.1973 59.216 41.72C60.944 41.504 62.024 40.64 63.392 39.992Z" fill="#231F20"/>
<path fill-rule="evenodd" clip-rule="evenodd" d="M52.376 41C53.888 41.72 56.552 41.864 58.496 41.792C58.6223 42.2854 58.6709 42.7956 58.64 43.304C56.12 43.376 53.096 42.8 52.376 41Z" fill="#231F20"/>
<path fill-rule="evenodd" clip-rule="evenodd" d="M52.088 42.44C53.096 44.96 56.624 44.672 59.504 44.6C59.4521 44.7868 59.361 44.9605 59.2369 45.1094C59.1128 45.2584 58.9584 45.3792 58.784 45.464C57.848 45.824 55.256 46.112 53.96 45.464C53.2278 44.9228 52.6151 44.2366 52.16 43.448C51.944 43.16 50.792 42.44 52.088 42.44Z" fill="#231F20"/>
<path fill-rule="evenodd" clip-rule="evenodd" d="M62.168 56.408C61.0735 58.4692 59.8218 60.4431 58.424 62.312C59.072 60.584 59.288 57.704 59.36 55.472C59.8593 55.2412 60.4277 55.2095 60.9495 55.3834C61.4713 55.5574 61.9071 55.9238 62.168 56.408Z" fill="#81B0C4"/>
<path fill-rule="evenodd" clip-rule="evenodd" d="M68.576 63.68C67.208 63.968 66.272 65.264 64.976 65.192C65.696 64.184 66.992 63.752 68.576 63.68Z" fill="#231F20"/>
<path fill-rule="evenodd" clip-rule="evenodd" d="M69.152 65.768C68.0092 65.9475 66.8522 66.0198 65.696 65.984C66.2 65.192 68.216 65.48 69.152 65.768Z" fill="#231F20"/>
<path fill-rule="evenodd" clip-rule="evenodd" d="M69.512 67.568C68.2157 67.6167 66.9177 67.5926 65.624 67.496C66.344 66.776 68.72 67.208 69.512 67.568Z" fill="#231F20"/>
<path fill-rule="evenodd" clip-rule="evenodd" d="M59.864 72.464C60.08 74.048 60.656 75.56 60.584 77.216C59.9731 77.4936 59.311 77.6408 58.64 77.648C58.568 76.208 58.352 74.048 58.424 72.68C58.856 72.752 59.576 72.392 59.864 72.464Z" fill="#DCD9D8"/>
<path fill-rule="evenodd" clip-rule="evenodd" d="M57.92 50L56.192 51.296C55.6666 51.3842 55.1281 51.3523 54.6169 51.2026C54.1056 51.053 53.6349 50.7895 53.24 50.432C53.24 50.432 53.384 50.432 53.384 50.36C54.752 50.936 56.552 50.072 57.92 50Z" fill="#F0D6B7"/>
<path fill-rule="evenodd" clip-rule="evenodd" d="M50.648 59.432C51.008 57.776 52.52 56.984 53.888 56.048C55.256 57.848 56.12 60.08 57.056 62.312C54.8097 61.6191 52.6575 60.6518 50.648 59.432Z" fill="#81B0C4"/>
<path fill-rule="evenodd" clip-rule="evenodd" d="M58.424 72.68C58.352 74.048 58.568 76.208 58.64 77.648C59.311 77.6408 59.9731 77.4937 60.584 77.216C60.656 75.56 60.08 74.048 59.864 72.464C59.576 72.392 58.856 72.752 58.424 72.68ZM44.384 64.976C44.9 70.0374 45.9375 75.0319 47.48 79.88C50.9898 80.9554 54.73 81.0302 58.28 80.096C57.704 77.36 57.92 74.048 57.632 71.096C57.344 68.144 57.488 66.704 57.128 64.472C53.384 63.68 48.128 64.328 44.384 64.976ZM58.064 64.544C58.0162 66.8757 58.1124 69.2082 58.352 71.528L60.656 71.096C60.368 68.864 60.44 66.344 59.864 64.328C59.2558 64.289 58.6457 64.3622 58.064 64.544ZM62.6 64.184C62.1746 64.0773 61.7294 64.0773 61.304 64.184C61.448 66.056 61.952 68.144 62.096 70.16C62.744 70.232 63.104 69.872 63.608 69.8C63.608 68.072 63.464 65.624 62.6 64.184ZM69.512 70.448C70.88 70.16 71.744 68.504 71.312 66.848C70.88 65.192 70.664 63.536 70.16 62.816C69.656 62.096 68.864 61.592 68.072 62.096C67.28 62.6 64.616 63.104 63.752 64.112C64.1567 65.9105 64.3977 67.742 64.472 69.584C66.056 69.728 68 69.152 69.296 69.728C68.36 70.016 67.208 70.016 66.416 70.448C67.4276 70.7381 68.5004 70.7381 69.512 70.448ZM57.056 62.312C56.12 60.08 55.256 57.848 53.888 56.048C52.52 56.984 51.008 57.776 50.648 59.432C52.6574 60.6518 54.8097 61.6192 57.056 62.312ZM59.36 55.472C59.288 57.704 59.072 60.584 58.424 62.312C59.8218 60.4431 61.0735 58.4693 62.168 56.408C61.9071 55.9238 61.4713 55.5574 60.9495 55.3834C60.4277 55.2095 59.8592 55.2412 59.36 55.472ZM56.768 54.536C56.192 54.464 55.76 55.184 55.112 54.896C54.9263 55.0454 54.7574 55.2144 54.608 55.4C56.12 57.272 56.84 59.864 57.992 62.024C58.64 59.936 58.568 57.632 58.712 55.4C57.848 55.472 57.344 54.608 56.768 54.536ZM55.04 52.304C55.0814 52.8357 55.1535 53.3646 55.256 53.888C57.344 54.536 56.984 51.008 55.04 52.304ZM52.736 51.584C51.6814 50.9805 50.54 50.5433 49.352 50.288C47.912 50 48.056 52.232 48.128 53.6C48.2649 54.599 48.5563 55.5706 48.992 56.48C49.064 56.768 49.136 57.128 49.352 57.2C49.568 57.272 51.512 56.624 51.944 56.408C52.376 56.192 53.672 55.04 54.536 54.464C54.5244 54.1741 54.5486 53.884 54.608 53.6C54.0227 53.3218 53.3839 53.1744 52.736 53.168C53.24 52.88 53.96 52.88 54.464 52.592V52.304C53.8371 52.2112 53.2433 51.9638 52.736 51.584ZM44.24 50C43.448 50.72 46.328 51.8 47.192 51.8C48.056 51.8 47.48 50.936 47.408 50.576C47.336 50.216 44.96 50.504 44.24 50ZM53.384 50.36C53.384 50.432 53.24 50.432 53.24 50.432C53.6349 50.7895 54.1056 51.053 54.6169 51.2027C55.1281 51.3523 55.6666 51.3842 56.192 51.296L57.92 50C56.552 50.072 54.752 50.936 53.384 50.36ZM61.736 52.88C61.736 52.088 61.52 50.36 61.016 50C60.512 49.64 57.992 51.296 57.128 51.584C57.2853 51.8215 57.384 52.0929 57.416 52.376C57.9068 52.3003 58.409 52.3756 58.856 52.592C58.4036 52.5329 57.9448 52.6349 57.56 52.88C57.416 53.168 57.56 53.672 57.488 54.104C58.7783 54.4626 60.109 54.6562 61.448 54.68C61.7469 54.1306 61.8486 53.4953 61.736 52.88ZM42.944 50.72C42.728 50.576 41.144 48.488 40.928 48.56C38.0677 49.8357 35.4015 51.5082 33.008 53.528C35.312 58.424 36.248 64.4 36.392 70.16C38.984 71.384 41.288 73.112 44.816 73.256C44.384 70.376 44.024 67.784 43.808 65.12C42.944 64.688 41.648 65.12 40.784 64.976C39.92 64.832 42.08 64.544 42.152 63.824C42.224 63.104 41.504 63.32 41.72 62.528C41.936 61.736 42.728 63.248 43.448 63.464C44.024 62.096 43.376 59.648 43.52 58.496C43.664 57.344 43.592 57.272 44.096 57.416C44.6 57.56 44.096 60.08 44.096 61.16C44.096 62.24 44.024 63.176 44.384 63.752C47.84 63.32 51.296 63.032 54.968 62.888C54.176 62.528 53.24 62.24 52.16 61.664C51.08 61.088 49.784 60.656 49.568 60.08C49.352 59.504 50.288 58.784 50.432 57.992C48.704 58.928 48.416 57.128 47.984 55.832C47.6946 54.939 47.4779 54.024 47.336 53.096C45.8052 52.4343 44.3355 51.6392 42.944 50.72ZM60.224 48.848C62.6 47.696 63.032 53.168 62.096 54.896C62.24 55.472 62.744 55.616 62.96 56.12C61.664 58.496 60.152 60.728 58.784 63.032C59.792 62.456 61.232 62.96 62.456 62.456C63.68 61.952 63.176 61.304 63.536 60.512C64.4967 58.2589 65.244 55.9207 65.768 53.528C65.951 52.8933 66.0715 52.2422 66.128 51.584C65.984 50.792 64.976 50.216 64.472 49.784C63.968 49.352 62.888 48.128 61.88 47.336C61.448 47.984 60.584 48.344 60.224 48.848ZM37.544 27.752C36.392 28.976 36.608 31.352 36.752 33.008C38.84 31.712 41.504 33.08 41.504 35.312C42.512 35.24 41.864 34.088 41.72 33.296C41.144 30.776 42.656 28.04 41.792 25.736C40.986 25.7754 40.1957 25.9738 39.4667 26.3198C38.7376 26.6657 38.0842 27.1525 37.544 27.752ZM45.608 20.48C43.088 21.2 39.776 23.072 38.696 25.376C39.56 25.304 40.136 24.872 40.928 24.8C41.2605 24.8598 41.5984 24.8839 41.936 24.872C42.656 24.656 43.232 23.144 43.808 22.568C44.384 21.992 44.888 21.704 45.32 21.2C45.752 20.696 45.968 21.056 46.04 20.696C45.9292 20.571 45.7744 20.4936 45.608 20.48ZM59 21.2C56.336 19.688 51.8 18.536 48.992 19.976C46.184 21.416 43.592 23 42.584 25.376C43.52 27.68 42.296 29.768 42.152 32.144C42.152 33.368 42.8 34.448 42.8 35.816C42.8 37.184 41.432 36.464 40.712 36.392C40.496 35.24 40.064 33.872 38.84 33.728C38.45 33.6986 38.0581 33.7489 37.6882 33.8759C37.3183 34.0028 36.9781 34.2038 36.6885 34.4666C36.3988 34.7293 36.1656 35.0483 36.0033 35.4041C35.8409 35.7599 35.7527 36.145 35.744 36.536C35.672 38.264 37.112 41.216 39.2 41C39.992 40.928 40.136 40.136 41.072 40.136C42.008 40.136 40.28 41.36 40.208 42.08C40.1933 42.4693 40.242 42.8583 40.352 43.232C40.7513 44.9304 41.4591 46.5411 42.44 47.984C43.448 49.496 45.536 49.712 47.696 49.856C48.128 48.992 49.568 49.064 50.504 49.28C49.3096 48.6929 48.2728 47.8289 47.48 46.76C46.472 45.68 45.392 44.456 45.392 43.016C47.264 45.68 48.848 47.984 52.304 49.136C55.76 50.288 57.992 48.776 60.008 47.336C60.7636 46.6572 61.3969 45.8535 61.88 44.96C64.112 41.792 65.192 37.184 64.904 32.792C64.832 30.992 64.832 29.192 64.256 27.968C63.68 26.744 61.448 25.52 60.152 26.672C59.936 25.448 61.232 24.656 62.744 25.088C61.664 23.72 60.512 22.064 59 21.2ZM63.968 62.24C66.056 61.232 69.944 59.504 71.24 62.24C71.7574 63.4814 72.1904 64.7563 72.536 66.056C72.896 67.568 72.176 70.736 70.592 71.24C69.1124 71.6608 67.5482 71.6856 66.056 71.312C65.809 71.1217 65.6115 70.8747 65.48 70.592C64.3906 70.4749 63.2905 70.6749 62.312 71.168C62.384 72.032 61.808 72.104 61.232 72.32C60.8 73.904 62.024 76.064 61.736 77.504C61.448 78.944 60.296 78.728 59.288 78.872C59.2936 79.403 59.3417 79.9327 59.432 80.456C59.216 81.248 58.208 81.752 57.344 81.824C54.32 82.184 49.712 82.328 46.76 81.32C45.968 79.304 45.32 76.928 44.672 74.624C41.792 74.912 39.488 73.4 37.328 72.392C36.608 72.032 35.528 71.888 35.312 71.24C35.096 70.592 35.096 69.584 35.024 68.504C34.9682 65.8121 34.6304 63.1335 34.016 60.512C33.728 59.288 33.152 58.208 32.792 57.056C32.311 55.9139 31.9257 54.7339 31.64 53.528C31.424 51.872 32.936 51.8 33.872 51.08C34.808 50.36 36.608 49.424 38.192 48.416C38.696 48.128 40.136 47.408 40.352 47.048C40.568 46.688 39.776 45.464 39.488 44.96C39.1362 44.2155 38.9402 43.407 38.912 42.584C38.3034 42.4791 37.7221 42.253 37.2026 41.9191C36.6831 41.5851 36.2361 41.1501 35.888 40.64C34.808 39.128 34.088 36.248 35.024 34.16C35.096 33.944 35.456 33.656 35.456 33.368C35.4863 32.7838 35.4132 32.1988 35.24 31.64C35.168 28.904 35.744 26.456 37.616 25.664C38.336 22.64 41.072 21.632 43.664 20.12C44.6558 19.578 45.6915 19.1204 46.76 18.752C50.648 17.312 56.696 17.6 59.936 20.048C61.304 21.128 63.536 23.288 64.328 24.872C66.344 29.12 66.2 36.104 64.76 41.216C64.5583 42.0832 64.2689 42.9275 63.896 43.736C63.608 44.312 62.744 45.464 62.888 45.968C63.032 46.472 64.832 47.912 65.192 48.344C65.552 48.776 67.28 49.928 67.424 50.792C67.3568 51.8567 67.1135 52.9029 66.704 53.888C65.84 56.84 64.976 59.576 63.968 62.24Z" fill="#231F20"/>
<path fill-rule="evenodd" clip-rule="evenodd" d="M50.072 41.648C50.3128 41.509 50.586 41.4358 50.864 41.4358C51.1421 41.4358 51.4152 41.509 51.656 41.648C51.656 41.648 50.648 41.864 50.72 43.592L50.288 43.448C50.288 43.448 49.856 41.936 50.072 41.648Z" fill="#F7E4CD"/>
<path fill-rule="evenodd" clip-rule="evenodd" d="M57.56 56.408C57.56 56.4647 57.5488 56.5209 57.5271 56.5733C57.5054 56.6257 57.4736 56.6733 57.4335 56.7135C57.3934 56.7536 57.3458 56.7854 57.2933 56.8071C57.2409 56.8288 57.1848 56.84 57.128 56.84C57.0059 56.8412 56.8876 56.7981 56.7949 56.7187C56.7022 56.6392 56.6415 56.5288 56.624 56.408C56.624 56.2743 56.6771 56.1461 56.7716 56.0516C56.8662 55.9571 56.9944 55.904 57.128 55.904C57.416 55.904 57.56 56.12 57.56 56.408Z" fill="#1D1919"/>
<path fill-rule="evenodd" clip-rule="evenodd" d="M58.064 58.568C58.064 58.7017 58.0109 58.8298 57.9164 58.9244C57.8219 59.0189 57.6937 59.072 57.56 59.072C57.4392 59.0546 57.3288 58.9938 57.2493 58.9012C57.1699 58.8085 57.1268 58.6901 57.128 58.568C57.128 58.4534 57.1735 58.3435 57.2545 58.2625C57.3356 58.1815 57.4454 58.136 57.56 58.136C57.848 58.136 58.064 58.28 58.064 58.568Z" fill="#1D1919"/>
</svg>
