<svg width="100" height="100" viewBox="0 0 100 100" fill="none" xmlns="http://www.w3.org/2000/svg">
<rect x="6" y="6" width="88" height="88" rx="8" fill="white" fill-opacity="0.8"/>
<path fill-rule="evenodd" clip-rule="evenodd" d="M23.288 55.976L45.248 76.856L77.72 61.664L49.856 48.632L23.288 55.976Z" fill="#AFAFDE" stroke="black" stroke-width="0.87" stroke-linejoin="round"/>
<path fill-rule="evenodd" clip-rule="evenodd" d="M22.28 27.32L23.288 55.976L49.856 48.632L48.992 24.584L22.28 27.32Z" fill="#353564" stroke="black" stroke-width="0.87" stroke-linejoin="round"/>
<path fill-rule="evenodd" clip-rule="evenodd" d="M48.992 24.584L76.568 27.752L77.72 61.664L49.856 48.632L48.992 24.584Z" fill="#E9E9FF" stroke="black" stroke-width="0.87" stroke-linejoin="round"/>
<path fill-rule="evenodd" clip-rule="evenodd" d="M22.28 27.32L43.664 32.864L76.568 27.752L48.992 24.584L22.28 27.32Z" fill="#19AEFF" stroke="black" stroke-width="0.87" stroke-linejoin="round"/>
<path fill-rule="evenodd" clip-rule="evenodd" d="M43.664 32.864L45.248 76.856L77.72 61.664L76.568 27.752L43.664 32.864Z" fill="#0084C8" stroke="black" stroke-width="0.87" stroke-linejoin="round"/>
<path fill-rule="evenodd" clip-rule="evenodd" d="M22.28 27.32L43.664 32.864L45.248 76.856L23.288 55.976L22.28 27.32Z" fill="#19AEFF" stroke="black" stroke-width="0.87" stroke-linejoin="round"/>
<path d="M24.44 35.744C24.44 35.744 27.248 29.984 33.008 35.888C35.744 38.768 37.76 42.008 40.352 37.688" stroke="black" stroke-width="1.31" stroke-miterlimit="5.58"/>
<path d="M24.44 39.56C24.44 39.56 27.248 33.8 33.008 39.704C35.744 42.584 37.76 45.752 40.352 41.504" stroke="black" stroke-width="1.31" stroke-miterlimit="5.58"/>
<path d="M24.44 43.304C24.44 43.304 27.248 37.544 33.008 43.448C35.744 46.328 37.76 49.496 40.352 45.248" stroke="black" stroke-width="1.31" stroke-miterlimit="5.58"/>
</svg>
