<svg width="100" height="100" viewBox="0 0 100 100" fill="none" xmlns="http://www.w3.org/2000/svg">
<rect x="6" y="6" width="88" height="88" rx="8" fill="white" fill-opacity="0.8"/>
<path d="M50 79.16C66.1046 79.16 79.16 66.1046 79.16 50C79.16 33.8954 66.1046 20.84 50 20.84C33.8953 20.84 20.84 33.8954 20.84 50C20.84 66.1046 33.8953 79.16 50 79.16Z" fill="url(#paint0_linear_3_570)"/>
<path d="M44.6721 63.32C43.7361 63.32 43.8801 63.032 43.5201 62.096L40.7841 52.952L62.1681 40.28" fill="#C8DAEA"/>
<path d="M44.672 63.32C44.9514 63.32 45.227 63.2549 45.477 63.13C45.7269 63.005 45.9443 62.8235 46.112 62.6L50 58.856L45.176 55.904" fill="#A9C9DD"/>
<path d="M45.176 55.904L56.912 64.616C58.208 65.336 59.216 64.976 59.504 63.392L64.328 40.856C64.832 38.84 63.536 37.976 62.312 38.552L34.232 49.352C32.288 50.144 32.288 51.224 33.872 51.728L41.072 53.96L57.776 43.448C58.568 42.944 59.288 43.232 58.64 43.736" fill="url(#paint1_linear_3_570)"/>
<defs>
<linearGradient id="paint0_linear_3_570" x1="58.208" y1="30.56" x2="44.384" y2="63.392" gradientUnits="userSpaceOnUse">
<stop stop-color="#37AEE2"/>
<stop offset="1" stop-color="#1E96C8"/>
</linearGradient>
<linearGradient id="paint1_linear_3_570" x1="53.2406" y1="50.562" x2="58.2441" y2="60.7882" gradientUnits="userSpaceOnUse">
<stop stop-color="#EFF7FC"/>
<stop offset="1" stop-color="white"/>
</linearGradient>
</defs>
</svg>
