<svg fill="none" height="800" viewBox="0 0 800 800" width="800" xmlns="http://www.w3.org/2000/svg" xmlns:xlink="http://www.w3.org/1999/xlink"><linearGradient id="a" gradientUnits="userSpaceOnUse" x1="557.743" x2="935.893" y1="139.35" y2="770.372"><stop offset="0" stop-color="#16a34a"/><stop offset=".218" stop-color="#22c55e"/><stop offset=".5304" stop-color="#22c55e"/><stop offset=".8019" stop-color="#4ade80"/><stop offset="1" stop-color="#4ade80"/></linearGradient><linearGradient id="b" gradientUnits="userSpaceOnUse" x1="501.147" x2="665.18" y1="36.2511" y2="665.213"><stop offset="0" stop-color="#4ade80"/><stop offset=".4911" stop-color="#4ade80"/><stop offset=".8259" stop-color="#86efac"/><stop offset="1" stop-color="#86efac"/></linearGradient><linearGradient id="c" gradientUnits="userSpaceOnUse" x1="268.049" x2="827.254" y1="633.75" y2="492.158"><stop offset="0" stop-color="#4ade80"/><stop offset=".2803" stop-color="#4ade80"/><stop offset=".4913" stop-color="#22c55e"/><stop offset=".6796" stop-color="#22c55e"/><stop offset="1" stop-color="#16a34a"/></linearGradient><clipPath id="d"><path d="m0 0h800v800h-800z"/></clipPath><g clip-path="url(#d)"><path d="m973.158 399.999v282.648c0 51.421-41.684 93.191-93.191 93.191-37.499 0-68.762-26.565-76.022-61.843-1.025-5.125-1.623-10.421-1.623-15.802v-298.194c0-11.873-1.025-23.576-2.99-35.022-7.09-41.427-26.736-79.609-57.059-109.933-38.694-38.694-90.201-60.048-144.954-60.048s-106.26 21.354-144.955 60.048c-30.323 30.324-49.969 68.506-57.059 109.933 13.753-114.716 94.558-208.761 202.014-242.074 27.163-8.371 55.948-12.898 85.845-12.898 159.56 0 289.054 128.895 289.994 288.285v.854z" fill="url(#a)"/><path d="m973.154 398.292c-.939-159.39-130.433-288.286-289.993-288.286-29.897 0-58.683 4.527-85.846 12.898-107.455 33.313-188.261 127.358-202.013 242.075-1.965 11.446-2.99 23.148-2.99 35.021s1.025 23.575 2.99 35.021c7.09 41.428 26.736 79.61 57.059 109.933 38.695 38.695 90.202 60.049 144.954 60.049 54.753 0 106.26-21.354 144.955-60.049 30.323-30.323 49.969-68.505 57.059-109.933-13.752 114.717-94.558 208.762-202.014 242.075-27.162 8.371-55.948 12.898-85.845 12.898-160.158 0-289.993-129.835-289.993-289.994 0-50.738 9.993-99.939 29.554-146.321 18.963-44.759 46.04-84.991 80.464-119.414 34.509-34.5091 74.655-61.5865 119.414-80.4639 46.468-19.6461 95.668-29.64 146.406-29.64 50.739 0 99.939 9.9939 146.321 29.5546 44.759 18.9628 84.991 46.0403 119.415 80.4633 34.509 34.509 61.586 74.656 80.463 119.415 19.476 45.955 29.384 94.557 29.64 144.698z" fill="url(#b)"/><path d="m803.941 713.995c-18.962 12.557-39.121 23.319-60.305 32.288-46.382 19.561-95.582 29.555-146.321 29.555-50.738 0-99.939-9.994-146.32-29.555-44.759-18.963-84.991-46.04-119.415-80.463-34.509-34.509-61.586-74.656-80.463-119.415-19.647-46.467-29.64-95.668-29.64-146.406 0 160.159 129.835 289.994 289.993 289.994 29.897 0 58.683-4.527 85.845-12.898 107.456-33.313 188.262-127.358 202.014-242.075 1.964-11.446 2.99-23.148 2.99-35.021v298.194c0 5.381.597 10.677 1.622 15.802z" fill="url(#c)"/></g></svg>